<svg xmlns="http://www.w3.org/2000/svg" viewBox="0 0 24 24" fill="#3b82f6">
  <path d="M13,8.57C13.24,8.23 13.38,7.82 13.38,7.38C13.38,6.15 12.37,5.14 11.14,5.14C10.8,5.14 10.5,5.23 10.23,5.38C10.18,4.04 9.09,3 7.76,3C6.37,3 5.24,4.13 5.24,5.52C5.24,5.95 5.35,6.36 5.55,6.71C4.43,7.07 3.62,8.15 3.62,9.43C3.62,10.71 4.43,11.79 5.55,12.14C5.35,12.5 5.24,12.91 5.24,13.33C5.24,14.73 6.37,15.86 7.76,15.86C8.28,15.86 8.75,15.7 9.14,15.43C9.17,15.72 9.26,16 9.4,16.24L6.5,19.14L7.91,20.55L10.88,17.58C11.23,17.79 11.63,17.9 12.05,17.9C13.45,17.9 14.58,16.77 14.58,15.38C14.58,15.14 14.54,14.91 14.48,14.69C15.62,14.36 16.43,13.27 16.43,12C16.43,10.73 15.62,9.64 14.48,9.31C14.54,9.09 14.58,8.86 14.58,8.62C14.58,8.59 14.57,8.58 13,8.57M11.14,7.05C11.65,7.05 12.05,7.45 12.05,7.95C12.05,8.46 11.65,8.86 11.14,8.86C10.64,8.86 10.24,8.46 10.24,7.95C10.24,7.45 10.64,7.05 11.14,7.05M7.76,4.91C8.65,4.91 9.38,5.64 9.38,6.53C9.38,7.42 8.65,8.14 7.76,8.14C6.87,8.14 6.14,7.42 6.14,6.53C6.14,5.64 6.87,4.91 7.76,4.91M5.53,10.34C5.53,9.5 6.21,8.81 7.05,8.81C7.88,8.81 8.57,9.5 8.57,10.34C8.57,11.17 7.88,11.86 7.05,11.86C6.21,11.86 5.53,11.17 5.53,10.34M7.76,14C6.87,14 6.14,13.27 6.14,12.38C6.14,11.5 6.87,10.77 7.76,10.77C8.65,10.77 9.38,11.5 9.38,12.38C9.38,13.27 8.65,14 7.76,14M12.05,16C11.16,16 10.43,15.27 10.43,14.38C10.43,13.5 11.16,12.77 12.05,12.77C12.94,12.77 13.67,13.5 13.67,14.38C13.67,15.27 12.94,16 12.05,16M14.5,11.1C13.67,11.1 12.98,10.41 12.98,9.57C12.98,8.74 13.67,8.05 14.5,8.05C15.34,8.05 16.03,8.74 16.03,9.57C16.03,10.41 15.34,11.1 14.5,11.1Z"/>
</svg>
